<svg xmlns="http://www.w3.org/2000/svg" xmlns:xlink="http://www.w3.org/1999/xlink" width="36" height="36" viewBox="0 0 36 36"><defs><path id="d5a4a" d="M478.91 5620.59a13.2 13.2 0 0 1-3.39 5.55c-1.91 1.92-4.25 3.28-6.52 4.59-2.13 1.24-4.15 2.4-5.7 3.96a9.3 9.3 0 0 0-2.39 3.9 2 2 0 0 1-3.32.82l-10-10a2 2 0 0 1-.5-2 13.2 13.2 0 0 1 3.39-5.55c1.91-1.92 4.25-3.28 6.52-4.6 2.13-1.23 4.15-2.4 5.7-3.95a9.32 9.32 0 0 0 2.39-3.9 2 2 0 0 1 3.32-.83l10 10a2 2 0 0 1 .5 2zm-1.91-.6l-10-10c-2.84 9.21-15.16 8.8-18 18l10 10c2.84-9.2 15.16-8.8 18-18zm-9.84 3.68c.11.28.15.6.12.94a3.5 3.5 0 0 1-.32 1.1c-.18.38-.42.77-.72 1.14l.53.44c.07.06.11.14.12.25.01.1-.02.2-.1.29a.36.36 0 0 1-.26.14c-.11 0-.2-.02-.27-.09-.18-.15-.35-.32-.53-.49-.36.37-.73.61-1.1.75a2.5 2.5 0 0 1-1.95-.07 2.04 2.04 0 0 1-.66-.48.87.87 0 0 1-.25-.56c0-.2.08-.36.24-.5.16-.14.3-.2.45-.2.13 0 .27.04.4.1.12.07.26.14.39.23.13.1.28.17.43.21.16.05.33.05.52.01.2-.04.42-.16.67-.37-.6-.63-1.19-1.3-1.78-1.99-.74.4-1.43.6-2.07.63a2.3 2.3 0 0 1-1.67-.52 1.85 1.85 0 0 1-.7-1.76c.04-.34.14-.7.3-1.06.17-.36.38-.7.64-1.01a18.4 18.4 0 0 0-.2-.17.35.35 0 0 1-.12-.25c-.02-.1.02-.2.09-.29a.35.35 0 0 1 .27-.13c.1 0 .2.03.27.1l.2.19a3.47 3.47 0 0 1 1.58-.87c.32-.07.63-.08.93-.02.3.05.56.2.77.44a.8.8 0 0 1 .23.58c-.01.2-.1.35-.24.48a.54.54 0 0 1-.47.12 15.1 15.1 0 0 1-.58-.13c-.2-.06-.43-.08-.65-.07-.23 0-.46.12-.7.34.53.56 1.07 1.17 1.6 1.79.34-.16.68-.3 1.02-.44.33-.13.67-.2 1-.23.33-.02.66.02.99.1.33.1.65.29.98.56.29.24.49.48.6.77zm-5.19-.43c-.5-.57-1.01-1.12-1.52-1.63-.14.15-.25.31-.32.47-.08.16-.13.32-.14.47-.01.15 0 .29.04.41.04.13.1.24.2.33.21.2.46.3.74.29.28-.01.62-.13 1-.34zm3.9 1.84c.02-.17.02-.33-.02-.49a.91.91 0 0 0-.26-.44 1 1 0 0 0-.46-.27 1.25 1.25 0 0 0-.5-.02c-.16.02-.32.07-.48.14l-.46.2c.56.63 1.12 1.26 1.68 1.82a2.1 2.1 0 0 0 .5-.94zm-3.48 5.13c.2.2.2.52 0 .71l-.05.04a15.7 15.7 0 0 0-3.08 3.06l-.64.87a.48.48 0 0 1-.07.1.5.5 0 0 1-.78-.62l.68-.94a14.57 14.57 0 0 1 3.27-3.25.5.5 0 0 1 .67.03zm4.35-16.08l.66-.9a.56.56 0 0 1 .09-.13.5.5 0 0 1 .74.68l-.68.94c-.43.59-.92 1.16-1.47 1.7-.56.57-1.17 1.07-1.8 1.55a.5.5 0 1 1-.58-.81c.59-.45 1.15-.92 1.68-1.45.5-.5.96-1.03 1.36-1.58z"/></defs><g><g transform="translate(-445 -5606)"><use fill="#0d0d0d" xlink:href="#d5a4a"/></g></g></svg>