<svg xmlns="http://www.w3.org/2000/svg" xmlns:xlink="http://www.w3.org/1999/xlink" width="30" height="43" viewBox="0 0 30 43"><defs><path id="tfyaa" d="M476.75 1451.75c0 5-4.6 10.4-6.29 15.1-2.5 6.98-2.15 11.15-7.46 11.15-5.23 0-4.96-4.19-7.46-11.18-1.68-4.7-6.29-10.03-6.29-15.07a13.75 13.75 0 0 1 27.5 0zm-10.06 18.73l.33-1.1-7.74.96.02.04c.28.97.52 1.72.74 2.36l6.2-.77c.14-.44.29-.93.45-1.5zm.73-2.4c.13-.43.29-.88.44-1.33h-9.7c.28.84.53 1.63.76 2.38zm-1.62 5.2l-5.3.66c.65 1.41 1.23 1.56 2.5 1.56 1.48 0 2.03-.16 2.8-2.23zm5.13-13.04c1.63-2.93 3.32-5.97 3.32-8.5a11.26 11.26 0 0 0-22.5 0c0 2.55 1.69 5.57 3.32 8.49a59.73 59.73 0 0 1 2.1 4.02h11.67a60.89 60.89 0 0 1 2.1-4zm-7.3-15.37c0 .35-.28.63-.63.63a6.26 6.26 0 0 0-6.25 6.25.62.62 0 1 1-1.25 0 7.5 7.5 0 0 1 7.5-7.5c.35 0 .62.28.62.62z"/></defs><g><g transform="translate(-448 -1436)"><use fill="#0d0d0d" xlink:href="#tfyaa"/></g></g></svg>