<svg xmlns="http://www.w3.org/2000/svg" xmlns:xlink="http://www.w3.org/1999/xlink" width="31" height="35" viewBox="0 0 31 35"><defs><path id="tqy2a" d="M499 4318v3a2 2 0 0 1-2 2h-1.03c0 .07.03.14.02.22l-2 18A2 2 0 0 1 492 4343h-14a2 2 0 0 1-1.99-1.78l-2-18 .02-.22H473a2 2 0 0 1-2-2v-3c0-1.06.83-1.9 1.88-1.98l1.22-3.65a2 2 0 0 1 1.9-1.37h18a2 2 0 0 1 1.9 1.37l1.21 3.65c1.05.06 1.89.91 1.89 1.98zm-24-2h20l-1-3h-18zm17 25l.33-3h-14.66l.33 3zm1.56-14h-17.12l1.12 10h14.88zm.44-4h-18l.33 3h17.34zm3-5h-24v3h24z"/></defs><g><g transform="translate(-469 -4309)"><use fill="#fff" xlink:href="#tqy2a"/></g></g></svg>