<svg xmlns="http://www.w3.org/2000/svg" xmlns:xlink="http://www.w3.org/1999/xlink" width="35" height="35" viewBox="0 0 35 35"><defs><path id="p5hsa" d="M999.4 5091.46a2.48 2.48 0 0 1 0 3.54l-1.4 1.4a2.47 2.47 0 0 1-3.14.33l-5.34 13.38a2.99 2.99 0 0 1-2.8 1.89h-.07a2.97 2.97 0 0 1-2.04-.88l-12.72-12.58a3 3 0 0 1 .9-4.87l13.58-5.44a2.48 2.48 0 0 1 .36-3.09l1.42-1.4a2.48 2.48 0 0 1 3.53 0zm-7.01 6.07c-4.2-4.47-8.38-3.13-12.57-4.52l-6.22 2.49a1 1 0 0 0-.3 1.62l12.72 12.59a1 1 0 0 0 .91.27 1 1 0 0 0 .73-.61zm5.6-4.66l-7.72-7.72a.5.5 0 0 0-.71 0l-1.41 1.41a.5.5 0 0 0 0 .7l1.71 1.72-8.49 3.4c.85.19 1.7.3 2.6.4 2.75.35 5.81.73 8.82 3.73l-.12.3 1.43-3.58 1.77 1.76c.2.2.51.2.7 0l1.42-1.41a.5.5 0 0 0 0-.7zM985 5098.5a2.5 2.5 0 1 1 5 0 2.5 2.5 0 0 1-5 0zm1 0a1.5 1.5 0 1 0 3 0 1.5 1.5 0 0 0-3 0zm17-16a2.5 2.5 0 1 1-5 0 2.5 2.5 0 0 1 5 0zm-1 0a1.5 1.5 0 1 0-3 0 1.5 1.5 0 0 0 3 0zm-21 12.5a2 2 0 1 1 0 4 2 2 0 0 1 0-4zm-1 2a1 1 0 1 0 2 0 1 1 0 0 0-2 0zm3 6a1 1 0 1 1 2 0 1 1 0 0 1-2 0zm18-15a1 1 0 1 1-2 0 1 1 0 0 1 2 0z"/></defs><g><g transform="translate(-969 -5078)"><use fill="#fff" xlink:href="#p5hsa"/></g></g></svg>