<svg xmlns="http://www.w3.org/2000/svg" xmlns:xlink="http://www.w3.org/1999/xlink" width="35" height="35" viewBox="0 0 35 35"><defs><path id="ebjva" d="M1501 4324.9l-.01.5-.02.21a3.47 3.47 0 0 1-.85 2.18c.38.7.53 1.55.4 2.37a4.71 4.71 0 0 1-1.35 2.77c.27.64.38 1.53 0 2.73-.22.72-.57 1.84-1.64 2.58.17.65.12 1.3-.03 1.76-.18.6-.41 1.05-.42 1.07-.72 1.29-1.92 1.93-3.59 1.93h-5.46a29.7 29.7 0 0 1-5.98-.69c-2.37-.54-3.47-.8-4.05-.95l-.05-.01-.24-.07h-.04a2.96 2.96 0 0 1-2.67 1.72h-3a3 3 0 0 1-3-3v-16a3 3 0 0 1 3-3h3c.72 0 1.43.32 1.95.75l1.05-.52c3.36-1.76 3.98-5.24 4-7.25a3.02 3.02 0 0 1 3-2.98c2.31 0 4.93 3.16 4.93 6.75 0 1.5-.05 2.34-.25 3.28 4.3.12 7.24.11 8.48.44a3.7 3.7 0 0 1 2.84 3.43zm-25-.9a1 1 0 0 0-1-1h-3a1 1 0 0 0-1 1v16a1 1 0 0 0 1 1h3a1 1 0 0 0 1-1zm23 .9c0-.3-.1-1.21-1.19-1.53-.88-.23-.81-.37-10.81-.37.83-2.47.93-2.88.93-5.25 0-2.63-1.87-4.75-2.93-4.75a1 1 0 0 0-1 1c-.04 3.4-1.43 7.55-6 9.44l-.2.08c-.5.15-.8.57-.8 1.04v13.81c0 .74.85.89.85.89.26.07.48.14 4.64 1.1.07.02 2.8.64 5.54.64h5.46c1.04 0 1.52-.33 1.82-.87.01-.02.16-.32.28-.72.12-.38.07-1.41-1.03-1.41H1493a.5.5 0 0 1 0-1h1.64c2.12 0 2.32-.94 2.64-1.95.24-.76.39-2.05-1.3-2.05H1494a.5.5 0 0 1 0-1h2.38c1.68 0 2.03-1.41 2.16-2.16.1-.6-.1-1.84-1.6-1.84H1495a.5.5 0 1 1 0-1h2c1.75 0 1.96-.97 1.98-1.47.01-.33.02-.28.02-.63zm-24 13.6a1.5 1.5 0 1 1-3 0 1.5 1.5 0 0 1 3 0zm-1 0a.5.5 0 0 0-1 0 .5.5 0 0 0 1 0z"/></defs><g><g transform="translate(-1467 -4309)"><use fill="#fff" xlink:href="#ebjva"/></g></g></svg>