<svg xmlns="http://www.w3.org/2000/svg" xmlns:xlink="http://www.w3.org/1999/xlink" width="19" height="13" viewBox="0 0 19 13"><defs><path id="uw9qa" d="M989 12096.25v6.5a2 2 0 0 1-2 2h-12a2 2 0 0 1-2-2v-6.5c0-1.1.9-2 2-2h12a2 2 0 0 1 2 2zm-15 5.87l3.5-2.62-3.5-2.63zm14 .63l-3.92-2.94-2.18 1.64a1.5 1.5 0 0 1-1.8 0l-2.18-1.64-3.92 2.94a1 1 0 0 0 1 1h12a1 1 0 0 0 1-1zm0-5.88l-3.5 2.63 3.5 2.62zm0-.62a1 1 0 0 0-1-1h-12a1 1 0 0 0-1 1l3.92 2.93.41.32 2.07 1.55a1 1 0 0 0 1.2 0z"/></defs><g><g transform="translate(-971 -12093)"><use fill="gray" xlink:href="#uw9qa"/></g></g></svg>