<svg xmlns="http://www.w3.org/2000/svg" xmlns:xlink="http://www.w3.org/1999/xlink" width="35" height="35" viewBox="0 0 35 35"><defs><path id="6bk9a" d="M1072 1952c0 1.63-.8 3.06-2 3.98V1971a3 3 0 0 1-6 0v-15.02a4.97 4.97 0 0 1 0-7.96V1945a3 3 0 0 1 6 0v3.02c1.2.91 2 2.35 2 3.98zm-6-4.9a5.13 5.13 0 0 1 2 0v-2.1a1 1 0 1 0-2 0zm2 9.8a4.9 4.9 0 0 1-2 0v14.1a1 1 0 1 0 2 0zm2-4.9c0-.3-.05-.57-.13-.84l-.05-.16a3 3 0 0 0-.38-.74l-.02-.01a3.03 3.03 0 0 0-.61-.63h-.01a3.06 3.06 0 0 0-1.8-.62 2.97 2.97 0 0 0-1.8.61v.01c-.24.18-.45.4-.62.63l-.02.01a3 3 0 0 0-.38.74l-.05.16c-.08.27-.13.54-.13.84 0 .3.05.57.13.84l.05.16c.1.26.22.51.38.73l.02.02c.17.24.38.45.61.63h.01a2.97 2.97 0 0 0 3.6 0c.24-.18.45-.4.62-.63l.02-.02c.16-.22.28-.47.38-.73l.05-.16c.08-.27.13-.55.13-.84zm24 0c0 1.63-.8 3.06-2 3.98V1971a3 3 0 0 1-6 0v-15.02a4.97 4.97 0 0 1 0-7.96V1945a3 3 0 0 1 6 0v3.02c1.2.91 2 2.35 2 3.98zm-6-4.9a5.13 5.13 0 0 1 2 0v-2.1a1 1 0 1 0-2 0zm2 9.8a4.9 4.9 0 0 1-2 0v14.1a1 1 0 1 0 2 0zm2-4.9c0-.3-.05-.57-.13-.84l-.05-.16a3 3 0 0 0-.38-.74l-.02-.01a3.03 3.03 0 0 0-.61-.63h-.01a3.06 3.06 0 0 0-1.8-.62 2.97 2.97 0 0 0-1.8.61v.01c-.24.18-.45.4-.62.63l-.02.01a3 3 0 0 0-.38.74l-.05.16c-.08.27-.13.54-.13.84 0 .3.05.57.13.84l.05.16c.1.26.22.51.38.73l.02.02c.17.24.38.45.61.63h.01a2.97 2.97 0 0 0 3.6 0c.24-.18.45-.4.62-.63l.02-.02c.16-.22.28-.47.38-.73l.05-.16c.08-.27.13-.55.13-.84zm-9 12c0 1.63-.8 3.06-2 3.98v3.02a3 3 0 0 1-6 0v-3.02a4.97 4.97 0 0 1 0-7.96V1945a3 3 0 0 1 6 0v15.02c1.2.91 2 2.35 2 3.98zm-6-4.9a5.13 5.13 0 0 1 2 0V1945a1 1 0 1 0-2 0zm2 9.8a4.96 4.96 0 0 1-2 0v2.1a1 1 0 1 0 2 0zm2-4.9c0-.3-.05-.57-.13-.84l-.05-.16c-.1-.26-.22-.51-.38-.74l-.02-.01a3.03 3.03 0 0 0-.61-.63h-.01a3.06 3.06 0 0 0-1.8-.62 3 3 0 0 0-1.8.61v.01c-.24.18-.45.4-.62.63l-.02.01c-.16.23-.28.48-.38.74l-.05.16c-.08.27-.13.54-.13.84 0 .3.05.57.13.84l.05.16c.1.26.22.51.38.73l.02.02a3 3 0 0 0 4.84 0l.02-.02c.16-.22.28-.47.38-.73l.05-.16c.08-.27.13-.55.13-.84z"/></defs><g><g transform="translate(-1060 -1940)"><use fill="#0d0d0d" xlink:href="#6bk9a"/></g></g></svg>