<svg xmlns="http://www.w3.org/2000/svg" xmlns:xlink="http://www.w3.org/1999/xlink" width="21" height="20" viewBox="0 0 21 20"><defs><path id="yjy0a" d="M987.9 12153.42l-8.55 8.61c-.26.27-.6.47-.95.57l-4.75 1.25c-.01 0-.43.1-.65.1a1.96 1.96 0 0 1-1.96-1.95c0-.2.09-.57.09-.58l1.31-4.77c.11-.36.3-.69.57-.95l5.78-5.83.01-.02c.01 0 .02 0 .03-.02l2.73-2.74a3.67 3.67 0 0 1 2.61-1.05c1.2 0 2.41.52 3.33 1.44 1.78 1.78 1.95 4.38.4 5.94zm-7.89 6.36l4.33-4.36v-.01-.01c.72-.71.88-1.78.56-2.8l-5.3 5.3c.22.46.36.96.4 1.46.02.14.01.28.01.42zm4.66-7.74a3.86 3.86 0 0 0-1.9-1.8l-5.33 5.34a5 5 0 0 1 1.14.83c.3.3.54.63.74.97zm-2.48-2a2.68 2.68 0 0 0-2.57.59l-4.31 4.35c.54 0 1.08.12 1.6.33zm-6.73 12.18a2.56 2.56 0 0 0-.78-1.9 2.55 2.55 0 0 0-1.87-.77l-.6 2.13-.05.32c0 .46.37.83.83.84.13-.01.32-.06.38-.07zm2.62-.7c.07-.01.13-.04.2-.08.98-1.1.78-2.97-.49-4.24-1.2-1.2-2.93-1.43-4.05-.63-.1.12-.18.25-.22.38l-.56 2.02c.77.03 1.53.37 2.11.95.62.62.93 1.4.94 2.15zm9.75-10.91a3.69 3.69 0 0 0-1.12-2.34 3.66 3.66 0 0 0-2.54-1.11c-.7 0-1.35.25-1.82.72l-.93.93c1.2 0 2.41.53 3.32 1.44a4.82 4.82 0 0 1 1.43 2.95v.38l.94-.95c.52-.52.78-1.24.72-2.02z"/></defs><g><g transform="translate(-970 -12145)"><use fill="gray" xlink:href="#yjy0a"/></g></g></svg>