<svg xmlns="http://www.w3.org/2000/svg" xmlns:xlink="http://www.w3.org/1999/xlink" width="35" height="31" viewBox="0 0 35 31"><defs><path id="n9una" d="M834 4330v7a4 4 0 0 1-4 4h-24a4 4 0 0 1-4-4v-7c0-.18.03-.36.08-.55l4-15A2 2 0 0 1 808 4313h20a2 2 0 0 1 1.92 1.45l4 15c.05.19.08.37.08.55zm-2 0l-4-15h-20l-4 15v7c0 1.1.9 2 2 2h24a2 2 0 0 0 2-2zm-5.3-12.26l3.45 12a1 1 0 0 1-.96 1.26h-4.57l-1.45 2.9a2 2 0 0 1-1.79 1.1h-6.76a2 2 0 0 1-1.8-1.1l-1.44-2.9h-4.57a1 1 0 0 1-.96-1.26l3.44-12a1 1 0 0 1 .97-.74h15.48a1 1 0 0 1 .97.74zm1.97 11.26l-2.93-11h-15.48l-2.93 11h4.05c.76 0 1.45.42 1.79 1.1l1.45 2.9h6.76l1.45-2.9a1.99 1.99 0 0 1 1.79-1.1z"/></defs><g><g transform="translate(-800 -4311)"><use fill="#f39c12" xlink:href="#n9una"/></g></g></svg>