<svg xmlns="http://www.w3.org/2000/svg" xmlns:xlink="http://www.w3.org/1999/xlink" width="30" height="29" viewBox="0 0 30 29"><defs><path id="i5wra" d="M599.04 5094.09l-5.19 5.18 1.2 7.18a1.9 1.9 0 0 1-.8 1.88 2 2 0 0 1-2.08.1l-6.17-3.32-6.17 3.33a2.03 2.03 0 0 1-2.08-.11 1.9 1.9 0 0 1-.8-1.88l1.2-7.18-5.2-5.18a1.88 1.88 0 0 1-.45-1.94c.24-.68.84-1.18 1.57-1.29l7.08-1.05 3.07-6.39a1.97 1.97 0 0 1 1.78-1.1c.76 0 1.45.43 1.78 1.1l3.07 6.4 7.08 1.04c.73.11 1.33.6 1.57 1.29.23.68.06 1.43-.46 1.94zm-1.4-1.34l-7.08-1.05c-.65-.1-1.2-.5-1.48-1.08l-3.08-6.38-3.08 6.38c-.27.58-.83.98-1.48 1.08l-7.08 1.05 5.2 5.18c.43.44.62 1.05.52 1.65l-1.2 7.18 6.17-3.32a2.01 2.01 0 0 1 1.9 0l6.17 3.32-1.2-7.18c-.1-.6.1-1.21.53-1.65z"/></defs><g><g transform="translate(-571 -5081)"><use fill="#0d0d0d" xlink:href="#i5wra"/></g></g></svg>