<svg xmlns="http://www.w3.org/2000/svg" xmlns:xlink="http://www.w3.org/1999/xlink" width="36" height="35" viewBox="0 0 36 35"><defs><path id="bb3fa" d="M1167.91 4341.58a2 2 0 0 1-1.91 1.42h-28a2 2 0 0 1-1.1-3.67c.2-.13 3.84-2.52 9.26-3.7a22.7 22.7 0 0 1-3.8-8.16c-.76-3.13-.47-9.25 2.54-13.07a8.75 8.75 0 0 1 7.1-3.4c2.9 0 5.35 1.18 7.1 3.4 3 3.82 3.3 9.94 2.55 13.07a22.7 22.7 0 0 1-3.81 8.17 29.22 29.22 0 0 1 9.27 3.7 2 2 0 0 1 .8 2.24zm-8.07-19.83c-.55-4.28-3-8.75-7.84-8.75s-7.3 4.47-7.84 8.75a17.1 17.1 0 0 0 3.57 12.65l.33.41c2.39 2.74 5.5 2.74 7.88 0l.33-.41a17.1 17.1 0 0 0 3.57-12.65zM1166 4341a27.22 27.22 0 0 0-8.59-3.4l-2.48-.55c-.89.59-1.86.95-2.93.95a5.28 5.28 0 0 1-2.93-.95l-2.48.54a27.2 27.2 0 0 0-8.59 3.4z"/></defs><g><g transform="translate(-1134 -4309)"><use fill="#fff" xlink:href="#bb3fa"/></g></g></svg>