<svg xmlns="http://www.w3.org/2000/svg" xmlns:xlink="http://www.w3.org/1999/xlink" width="31" height="31" viewBox="0 0 31 31"><defs><path id="wgrxa" d="M1401.45 5095.5a13.95 13.95 0 1 1-27.9 0 13.95 13.95 0 0 1 27.9 0zm-4.89-8.07c-1.03.8-2.15 1.47-3.36 1.98.63 1.74.98 3.65 1.03 5.64h5.4a12.08 12.08 0 0 0-3.07-7.62zm-9.51 20.2v-5.36c-1.29.04-2.54.24-3.72.61.92 1.88 2.18 3.5 3.67 4.74h.05zm.9-24.26v6.26c1.42-.05 2.78-.3 4.07-.74-.94-2.2-2.33-4.1-4.02-5.52h-.05zm4.9 5.2a13.84 13.84 0 0 0 3.1-1.79 12.1 12.1 0 0 0-6.45-3.25c1.39 1.4 2.54 3.1 3.36 5.05zm-5.85-5.2a14.54 14.54 0 0 0-4.02 5.52c1.29.44 2.65.7 4.07.74v-6.26h-.05zm-1.5.16a12.1 12.1 0 0 0-6.44 3.25c.94.72 1.97 1.34 3.08 1.8a15.83 15.83 0 0 1 3.36-5.05zm-3.83 11.52h5.38v-4.52a14.76 14.76 0 0 1-4.4-.81c-.6 1.64-.93 3.44-.98 5.33zm0 .9c.06 2.2.52 4.26 1.3 6.11a14.8 14.8 0 0 1 4.08-.69v-5.42zm.81 7.24c-1.02.4-1.98.92-2.87 1.53a12.1 12.1 0 0 0 5.9 2.75 15.58 15.58 0 0 1-3.03-4.28zm5.52 4.43a14.35 14.35 0 0 0 3.67-4.74 13.91 13.91 0 0 0-3.72-.6v5.35h.05zm1.5-.15a12.1 12.1 0 0 0 5.89-2.75 13.76 13.76 0 0 0-2.87-1.53 15.58 15.58 0 0 1-3.02 4.28zm3.83-11.52h-5.38v5.42c1.42.04 2.8.28 4.09.7a16.89 16.89 0 0 0 1.3-6.12zm0-.9a17.02 17.02 0 0 0-.98-5.33c-1.38.48-2.86.76-4.4.8v4.53zm-17.96 0h5.4c.05-2 .4-3.9 1.03-5.64a14.78 14.78 0 0 1-3.36-1.98 12.08 12.08 0 0 0-3.07 7.62zm3.57 9.06c.98-.7 2.04-1.3 3.18-1.74a17.76 17.76 0 0 1-1.35-6.42h-5.4a12.1 12.1 0 0 0 3.57 8.16zm20.69-8.16h-5.4c-.06 2.3-.54 4.47-1.35 6.42 1.14.45 2.2 1.04 3.18 1.74a12.1 12.1 0 0 0 3.57-8.16z"/></defs><g><g transform="translate(-1372 -5080)"><use fill="#0d0d0d" xlink:href="#wgrxa"/></g></g></svg>